<svg width="37" height="36" viewBox="0 0 37 36" fill="none" xmlns="http://www.w3.org/2000/svg">
<g id="Figma" clip-path="url(#clip0_49_104)">
<path id="Union" fill-rule="evenodd" clip-rule="evenodd" d="M12.8885 0.0744629C9.59395 0.0744629 6.92012 2.74829 6.92012 6.04283C6.92012 9.33737 9.59395 12.0112 12.8885 12.0112C9.59395 12.0112 6.92012 14.685 6.92012 17.9796C6.92012 21.2741 9.59395 23.9479 12.8885 23.9479C9.59395 23.9479 6.92012 26.6218 6.92012 29.9163C6.92012 33.2109 9.59395 35.8847 12.8885 35.8847C16.183 35.8847 18.8569 33.2109 18.8569 29.9163L18.8569 17.9796C18.8569 21.2741 21.5307 23.9479 24.8252 23.9479C28.1198 23.9479 30.7936 21.2741 30.7936 17.9796C30.7936 14.685 28.1198 12.0112 24.8252 12.0112C28.1198 12.0112 30.7936 9.33737 30.7936 6.04283C30.7936 2.74829 28.1198 0.0744629 24.8252 0.0744629H12.8885ZM24.8252 12.0112H18.8569L18.8569 17.9796C18.8569 14.685 21.5307 12.0112 24.8252 12.0112Z" fill="#7B4AE2" fill-opacity="0.5"/>
</g>
<defs>
<clipPath id="clip0_49_104">
<rect width="35.8102" height="35.8102" fill="white" transform="translate(0.905121 0.0744629)"/>
</clipPath>
</defs>
</svg>
