<svg width="65" height="70" viewBox="0 0 65 70" fill="none" xmlns="http://www.w3.org/2000/svg">
<g id="Group">
<path id="Vector" d="M1.72081 37.0016L9.11622 30.994C10.8301 29.6018 13.3491 29.8609 14.7421 31.5736C16.1359 33.2857 15.8759 35.8024 14.1621 37.1946L10.5832 40.1019L36.5676 61.978C38.2814 63.3701 38.5413 65.8869 37.1476 67.5989C36.3575 68.5704 35.2047 69.0742 34.0427 69.0742C33.1563 69.0742 32.2634 68.781 31.5224 68.1785L1.72081 43.2022C0.787307 42.4433 0.244629 41.305 0.244629 40.1019C0.244629 38.8994 0.787307 37.7604 1.72081 37.0016Z" fill="#7B4AE2"/>
<path id="Vector_2" d="M34.5604 0.292607C36.6834 0.309616 38.3913 2.04327 38.3743 4.16487L38.0437 65.2628C38.0267 67.3844 36.2913 69.0906 34.1683 69.0736C33.6302 69.0696 33.1196 68.9551 32.6561 68.7523C31.2912 68.1544 30.3413 66.7858 30.3538 65.2013L30.685 4.10404C30.702 1.98179 32.4368 0.275597 34.5604 0.292607Z" fill="#7B4AE2"/>
<path id="Vector_3" d="M51.4375 42.3209L54.1687 40.1018L44.4408 32.1983C42.727 30.8062 42.4678 28.2901 43.8608 26.5774C45.2539 24.8653 47.7729 24.6056 49.4867 25.9977L63.0304 37.0015C63.9646 37.7604 64.5066 38.8994 64.5066 40.1018C64.5066 41.3049 63.9646 42.4432 63.0304 43.2021L56.4834 48.5215C55.7417 49.1233 54.8495 49.4171 53.9631 49.4171C52.8005 49.4171 51.6477 48.9127 50.8575 47.9419C49.4645 46.2298 49.7244 43.7131 51.4375 42.3209Z" fill="#C83267"/>
</g>
</svg>
