<svg width="134" height="25" viewBox="0 0 134 25" fill="none" xmlns="http://www.w3.org/2000/svg">
<path id="Vector" fill-rule="evenodd" clip-rule="evenodd" d="M33.9738 1.0445C32.22 1.6817 27.9152 3.75226 24.407 5.74433C20.8995 7.65527 16.9134 9.72714 15.5583 10.2845C12.7682 11.3993 4.55652 11.7179 1.9262 10.8419C0.411381 10.363 0.0919189 10.5227 0.0919189 12.0358C0.0919189 14.5055 5.27466 19.1255 10.9346 21.8346C18.2691 25.3392 27.8353 24.6222 39.7941 19.6044C44.41 18.2443 51.0866 14.603 56.4552 12.7535C68.2831 8.5751 74.3247 10.9734 84.9959 15.5418L94.3231 19.6044C106.282 24.6222 115.848 25.3392 123.183 21.8346C128.923 19.1255 134.264 14.2674 133.866 12.1955C133.706 11.3993 132.988 10.9217 132.351 11.0807C131.713 11.2403 128.763 11.3195 125.734 11.3195C120.95 11.2397 119.515 10.8419 113.776 7.89472C98.23 -0.229904 100.462 0.407283 88.982 0.407283C79.8145 0.407283 77.9802 0.725236 72.8787 2.55768L67.0583 4.62824L61.3185 2.55768C54.3034 0.0880363 39.3948 -0.708128 33.9738 1.0445Z" fill="#2C1B18" fill-opacity="0.301961"/>
</svg>
